<svg width="184" height="168" viewBox="0 0 184 168" fill="none" xmlns="http://www.w3.org/2000/svg">
<path d="M0 72V72C3.81227e-07 70.0385 0.39205 68.077 1.17615 66.1884C2.95895 61.8943 7.71725 58.1704 17.2338 50.7227L64.8123 13.4873C74.3289 6.03958 79.0872 2.3157 84.5741 0.920466C89.4005 -0.306824 94.5995 -0.306819 99.4259 0.920465C104.913 2.3157 109.671 6.03958 119.188 13.4873L166.766 50.7227C176.283 58.1704 181.041 61.8943 182.824 66.1884C183.608 68.077 184 70.0385 184 72V96C184 97.9615 183.608 99.923 182.824 101.812C181.041 106.106 176.283 109.83 166.766 117.277L119.188 154.513C109.671 161.96 104.913 165.684 99.4259 167.08C94.5995 168.307 89.4005 168.307 84.5741 167.08C79.0872 165.684 74.329 161.96 64.8126 154.513L17.2338 117.277C7.71725 109.83 2.95895 106.106 1.17615 101.812C0.392049 99.923 0 97.9615 0 96V72ZM71.6091 47.1765L78.406 52.4958C83.1643 56.2197 85.5435 58.0816 88.2869 58.7792C90.7001 59.3929 93.2996 59.3929 95.7128 58.7792C98.4563 58.0816 100.835 56.2196 105.594 52.4958L112.391 47.1764C117.149 43.4526 119.528 41.5906 120.42 39.4436C121.204 37.555 121.204 35.5206 120.42 33.632C119.528 31.4849 117.149 29.623 112.391 25.8991L105.594 20.5798C100.835 16.8559 98.4563 14.994 95.7128 14.2964C93.2996 13.6827 90.7001 13.6827 88.2869 14.2964C85.5435 14.994 83.1643 16.8559 78.406 20.5798L71.6091 25.8991C66.8508 29.623 64.4717 31.4849 63.5803 33.632C62.7962 35.5206 62.7962 37.555 63.5803 39.4436C64.4717 41.5906 66.8508 43.4526 71.6091 47.1765ZM116.922 82.6387L123.719 87.9582C128.477 91.682 130.856 93.5439 133.6 94.2415C136.013 94.8551 138.613 94.8551 141.026 94.2415C143.769 93.5439 146.148 91.6818 150.907 87.958L157.704 82.6387C162.462 78.9148 164.841 77.0529 165.732 74.9058C166.516 73.0172 166.516 70.9828 165.732 69.0942C164.841 66.9472 162.462 65.0852 157.704 61.3614L150.907 56.042C146.148 52.3181 143.769 50.4562 141.026 49.7586C138.613 49.145 136.013 49.145 133.6 49.7586C130.856 50.4562 128.477 52.3182 123.719 56.042L116.922 61.3614C112.164 65.0853 109.785 66.9472 108.893 69.0942C108.109 70.9828 108.109 73.0172 108.893 74.9058C109.785 77.0529 112.164 78.9148 116.922 82.6387ZM26.2964 82.6387L78.4061 123.42C83.1644 127.144 85.5436 129.006 88.287 129.704C90.7002 130.317 93.2997 130.317 95.7129 129.704C98.4564 129.006 100.836 127.144 105.594 123.42L112.391 118.101C117.149 114.377 119.528 112.515 120.42 110.368C121.204 108.479 121.204 106.445 120.42 104.556C119.528 102.409 117.149 100.547 112.391 96.8236L60.281 56.042C55.5227 52.3182 53.1435 50.4562 50.4001 49.7586C47.9869 49.145 45.3874 49.145 42.9742 49.7586C40.2307 50.4562 37.8516 52.3182 33.0933 56.042L26.2964 61.3614C21.5381 65.0853 19.1589 66.9472 18.2675 69.0942C17.4834 70.9828 17.4834 73.0172 18.2675 74.9058C19.1589 77.0529 21.5381 78.9148 26.2964 82.6387Z" fill="black"/>
</svg>
